<svg xmlns="http://www.w3.org/2000/svg" viewBox="0 0 400 80" width="400" height="80"><defs><style>.cls-1{fill:#6900e9;}.cls-2{fill:#fff;}</style></defs><title>Laravel Bridge</title><path d="M93.36,56.89V24.23H100V51.34h16.53v5.55Z"/><path d="M126,40.32l-5.73-1a9,9,0,0,1,3.33-5.12q2.36-1.66,7-1.66a15.07,15.07,0,0,1,6.29,1,6.28,6.28,0,0,1,2.9,2.54c.57,1,.85,2.91.85,5.65l-.07,7.36a25.8,25.8,0,0,0,.3,4.64,13.18,13.18,0,0,0,1.14,3.2h-6.25q-.24-.63-.6-1.86c-.11-.38-.18-.62-.23-.74a11.64,11.64,0,0,1-3.46,2.36,10,10,0,0,1-3.93.78,8.08,8.08,0,0,1-5.8-2,6.62,6.62,0,0,1-2.13-5,6.84,6.84,0,0,1,1-3.61,6.26,6.26,0,0,1,2.71-2.42,21.2,21.2,0,0,1,5-1.47,34.86,34.86,0,0,0,6.13-1.55V40.7a3.29,3.29,0,0,0-.9-2.6,5.43,5.43,0,0,0-3.39-.77,4.52,4.52,0,0,0-2.63.66A4.61,4.61,0,0,0,126,40.32Zm8.45,5.12a38.65,38.65,0,0,1-3.84,1,11.68,11.68,0,0,0-3.44,1.1,2.66,2.66,0,0,0-1.24,2.23,3.09,3.09,0,0,0,1,2.29,3.47,3.47,0,0,0,2.52,1,5.47,5.47,0,0,0,3.26-1.12,4,4,0,0,0,1.5-2.09,12.61,12.61,0,0,0,.25-3.07Z"/><path d="M152.86,56.89h-6.31V33h5.86v3.39a10.22,10.22,0,0,1,2.71-3.17,5,5,0,0,1,2.73-.76A8,8,0,0,1,162,33.69l-1.95,5.5a5.54,5.54,0,0,0-3-1,3.47,3.47,0,0,0-2.24.73,5,5,0,0,0-1.45,2.64,37.59,37.59,0,0,0-.53,8Z"/><path d="M169.44,40.32l-5.73-1A8.93,8.93,0,0,1,167,34.16c1.58-1.11,3.91-1.66,7-1.66a15,15,0,0,1,6.29,1A6.26,6.26,0,0,1,183.24,36c.56,1,.84,2.91.84,5.65L184,49.05a24.69,24.69,0,0,0,.31,4.64,13.56,13.56,0,0,0,1.13,3.2h-6.24c-.17-.42-.37-1-.61-1.86-.1-.38-.18-.62-.22-.74a11.77,11.77,0,0,1-3.46,2.36,10,10,0,0,1-3.93.78,8.11,8.11,0,0,1-5.81-2,6.64,6.64,0,0,1-2.12-5,6.84,6.84,0,0,1,1-3.61,6.37,6.37,0,0,1,2.71-2.42,21.2,21.2,0,0,1,5-1.47,34.86,34.86,0,0,0,6.13-1.55V40.7a3.29,3.29,0,0,0-.9-2.6,5.43,5.43,0,0,0-3.39-.77A4.55,4.55,0,0,0,171,38,4.6,4.6,0,0,0,169.44,40.32Zm8.44,5.12a38.65,38.65,0,0,1-3.84,1,11.79,11.79,0,0,0-3.44,1.1,2.65,2.65,0,0,0-1.23,2.23,3.09,3.09,0,0,0,1,2.29,3.45,3.45,0,0,0,2.51,1,5.45,5.45,0,0,0,3.26-1.12,3.9,3.9,0,0,0,1.5-2.09,12.11,12.11,0,0,0,.25-3.07Z"/><path d="M196.86,56.89,187.25,33h6.62l4.5,12.17,1.3,4.07c.34-1,.56-1.72.65-2.05.21-.67.43-1.34.67-2L205.53,33H212l-9.48,23.85Z"/><path d="M229.7,49.3,236,50.36a10.33,10.33,0,0,1-3.83,5.26,11.24,11.24,0,0,1-6.55,1.81q-6.23,0-9.21-4.06A13.67,13.67,0,0,1,214,45.15q0-5.94,3.1-9.29A10.21,10.21,0,0,1,225,32.5a10.57,10.57,0,0,1,8.4,3.52q3.08,3.51,3,10.77H220.51A6.41,6.41,0,0,0,222,51.15a4.78,4.78,0,0,0,3.64,1.56,3.83,3.83,0,0,0,2.49-.8A5,5,0,0,0,229.7,49.3Zm.36-6.38a6.07,6.07,0,0,0-1.42-4.16,4.3,4.3,0,0,0-3.28-1.43,4.39,4.39,0,0,0-3.41,1.5,5.86,5.86,0,0,0-1.33,4.09Z"/><path d="M241.47,56.89V24h6.31V56.89Z"/><path d="M267.1,56.89V24h12.35a15.37,15.37,0,0,1,6.05,1A7.91,7.91,0,0,1,289.08,28a8.15,8.15,0,0,1,1.29,4.35,7.5,7.5,0,0,1-1.15,4,8.1,8.1,0,0,1-3.46,3,8.62,8.62,0,0,1,4.59,3,8,8,0,0,1,1.61,5,9.52,9.52,0,0,1-1,4.3,8.24,8.24,0,0,1-2.41,3.06A9.94,9.94,0,0,1,285,56.34a21.71,21.71,0,0,1-5.31.55Zm4.35-19.09h7.12a16.12,16.12,0,0,0,4.16-.38,4.62,4.62,0,0,0,2.5-1.64,4.67,4.67,0,0,0,.85-2.88,5.32,5.32,0,0,0-.79-2.88A4,4,0,0,0,283,28.31a18.57,18.57,0,0,0-5-.46h-6.59Zm0,15.21h8.2a19.46,19.46,0,0,0,3-.16,7.06,7.06,0,0,0,2.51-.9,4.7,4.7,0,0,0,1.66-1.83,5.67,5.67,0,0,0,.66-2.77,5.45,5.45,0,0,0-.95-3.2,4.93,4.93,0,0,0-2.61-1.91,16.14,16.14,0,0,0-4.82-.55h-7.62Z"/><path d="M297.4,56.89V33H301v3.62a9.67,9.67,0,0,1,2.57-3.35,4.46,4.46,0,0,1,2.59-.81,7.9,7.9,0,0,1,4.16,1.3L309,37.55a5.77,5.77,0,0,0-3-.87,3.85,3.85,0,0,0-2.38.79,4.32,4.32,0,0,0-1.51,2.22,15.72,15.72,0,0,0-.67,4.71V56.89Z"/><path d="M312.78,28.61V24h4.05v4.65Zm0,28.28V33h4.05V56.89Z"/><path d="M338.46,56.89v-3a7.43,7.43,0,0,1-6.68,3.55,9.32,9.32,0,0,1-5.24-1.57,10.41,10.41,0,0,1-3.71-4.39A15.27,15.27,0,0,1,321.52,45a17,17,0,0,1,1.19-6.48,9.33,9.33,0,0,1,3.57-4.46,9.57,9.57,0,0,1,5.32-1.55,8,8,0,0,1,3.85.91,8.19,8.19,0,0,1,2.74,2.37V24h4V56.89ZM325.67,45c0,3,.65,5.34,1.94,6.85a5.81,5.81,0,0,0,4.56,2.27,5.75,5.75,0,0,0,4.5-2.17c1.23-1.44,1.85-3.65,1.85-6.61,0-3.27-.63-5.66-1.88-7.19A5.8,5.8,0,0,0,332,35.85a5.61,5.61,0,0,0-4.51,2.2C326.28,39.52,325.67,41.83,325.67,45Z"/><path d="M347.82,58.87l3.93.58a3.74,3.74,0,0,0,1.37,2.65,6.73,6.73,0,0,0,4.11,1.13,7.23,7.23,0,0,0,4.34-1.13A5.5,5.5,0,0,0,363.63,59a25.94,25.94,0,0,0,.3-5.19,8.33,8.33,0,0,1-6.61,3.12,9,9,0,0,1-7.61-3.55,13.63,13.63,0,0,1-2.7-8.51,15.74,15.74,0,0,1,1.24-6.3,9.92,9.92,0,0,1,3.58-4.46,9.66,9.66,0,0,1,5.51-1.57,8.57,8.57,0,0,1,7,3.41V33H368V53.66q0,5.56-1.14,7.89a8.28,8.28,0,0,1-3.59,3.68,12.57,12.57,0,0,1-6.06,1.34,11.41,11.41,0,0,1-6.89-1.92A6.5,6.5,0,0,1,347.82,58.87Zm3.35-14.33q0,4.7,1.86,6.85a5.92,5.92,0,0,0,4.67,2.16,6,6,0,0,0,4.68-2.15q1.88-2.15,1.88-6.73c0-2.92-.64-5.12-1.94-6.6a6,6,0,0,0-4.68-2.22A5.85,5.85,0,0,0,353.05,38C351.8,39.5,351.17,41.66,351.17,44.54Z"/><path d="M390.47,49.21l4.18.52A10.21,10.21,0,0,1,391,55.41a12.42,12.42,0,0,1-15.13-1.2q-3.06-3.23-3.06-9,0-6,3.1-9.35a10.49,10.49,0,0,1,8-3.32,10.19,10.19,0,0,1,7.81,3.26q3,3.26,3,9.16,0,.36,0,1.08H377a9.13,9.13,0,0,0,2.22,6,6.62,6.62,0,0,0,5,2.09A6.17,6.17,0,0,0,388,52.94,7.71,7.71,0,0,0,390.47,49.21ZM377.2,42.67h13.32A8.06,8.06,0,0,0,389,38.16a6.19,6.19,0,0,0-5-2.34,6.45,6.45,0,0,0-4.68,1.87A7.36,7.36,0,0,0,377.2,42.67Z"/><circle class="cls-1" cx="40" cy="40" r="40"/><path class="cls-2" d="M61.38,27.73A30,30,0,0,1,58.9,19V18.4a2.7,2.7,0,1,0-5.4,0V19A30.08,30.08,0,0,1,51,27.73c-2.49,5.25-6.2,7.91-11,7.91S31.47,33,29,27.73a30,30,0,0,1-2.45-8.44,2.79,2.79,0,0,0,0-.58V18.4a2.7,2.7,0,1,0-5.4,0v.74h0v.17c-.27,2-1.83,11.41-8.1,15V57.1h8.1v4.5a2.7,2.7,0,0,0,5.4,0V57.1h27v4.5a2.7,2.7,0,1,0,5.4,0V57.1H67V34.28A14.1,14.1,0,0,1,61.38,27.73ZM21.1,51.7H18.4V37.08a19.17,19.17,0,0,0,2.7-2.95Zm8.06,0H26.5V34.09A19.39,19.39,0,0,0,29.16,37Zm8.14,0H34.56V40.18a15.64,15.64,0,0,0,2.74.66Zm8.06,0H42.7V40.84a15.41,15.41,0,0,0,2.66-.64Zm8.14,0H50.76V37.09a18.42,18.42,0,0,0,2.74-3Zm8.1,0H58.9V34.09a19.33,19.33,0,0,0,2.7,3Z"/></svg>
